# WaveFront *.obj file (generated by CINEMA 4D)

mtllib ./Rock8.mtl

v -1.92645192146301 -1.00000000000000 -2.02916836738586
v -1.00000000000000 0.00000000000000 -1.47224998474121
v -1.00000000000000 0.26917520165443 -1.47224998474121
v 0.00000000000000 -1.00000000000000 -2.51128745079041
v 0.00000000000000 0.00000000000000 -1.73032879829407
v 0.00000000000000 0.67700809240341 -1.73032879829407
v 1.71736240386963 -1.00000000000000 -2.24440360069275
v 1.00000000000000 0.00000000000000 -2.02638316154480
v 0.90984028577805 0.26637238264084 -1.61420893669128
v 2.46838998794556 -1.00000000000000 0.00000000000000
v 1.00000000000000 0.00000000000000 -0.73032879829407
v 1.00000000000000 0.42747247219086 -0.73032879829407
v 1.71736240386963 -1.00000000000000 0.73181986808777
v 1.37010169029236 0.00000000000000 0.15618377923965
v 1.20428895950317 0.68609422445297 -0.16486144065857
v 0.00000000000000 -1.00000000000000 1.00000000000000
v 0.37010163068771 0.00000000000000 0.42436394095421
v 0.37010163068771 1.00000000000000 -0.16486144065857
v -1.87378954887390 -1.00000000000000 1.00000000000000
v -1.00000000000000 0.00000000000000 0.26967117190361
v -1.00000000000000 0.59216707944870 -0.31955417990685
v -2.25733780860901 -1.00000000000000 0.00000000000000
v -1.87356543540955 0.00000000000000 -0.73032879829407
v -1.00000000000000 0.59216707944870 -0.73032879829407
v 0.37010163068771 1.00000000000000 -0.57563608884811
v 0.37010163068771 -1.00000000000000 0.15469275414944
# 26 vertices

vn -0.19572040438652 0.60717743635178 -0.77008384466171
vn -0.04195395484567 0.46958598494530 -0.88188940286636
vn -0.03221315145493 0.46632376313210 -0.88402742147446
vn -0.24989095330238 0.00000000000000 -0.96827399730682
vn -0.02246879972517 0.46301016211510 -0.88606810569763
vn 0.72589093446732 0.67974400520325 -0.10502598434687
vn 0.67574709653854 0.71286940574646 0.18757164478302
vn 0.95091956853867 0.29386660456657 -0.09692486375570
vn 0.93172615766525 0.02136583253741 -0.36253252625465
vn 0.17788420617580 0.50020623207092 0.84743785858154
vn 0.18776077032089 0.48677879571915 0.85310745239258
vn -0.04790569469333 0.55742365121841 0.82884496450424
vn -0.10528364032507 0.58225172758102 0.80616265535355
vn 0.19757913053036 0.47320050001144 0.85851252079010
vn -0.16219592094421 0.60450452566147 0.77991461753845
vn -0.65818387269974 0.65186816453934 0.37664562463760
vn -0.81406784057617 0.25624889135361 -0.52118140459061
vn -0.86713182926178 0.42857286334038 0.25378671288490
vn -0.65694314241409 0.43530556559563 -0.61557680368423
vn -0.31622338294983 0.91225826740265 -0.26036050915718
vn 0.50047808885574 0.81298887729645 -0.29760837554932
vn 0.47581222653389 0.83363950252533 -0.28044238686562
vn -0.28529512882233 0.95843970775604 0.00000000000000
vn 0.45051372051239 0.85318171977997 -0.26290360093117
vn 0.00000000000000 -1.00000000000000 0.00000000000000
# 25 normals

o Cube.1
usemtl YellowDark
f 1//1 2//1 5//1 4//1
f 4//2 5//3 8//3 7//2
f 2//4 3//4 6//4 5//4
f 5//3 6//5 9//5 8//3
f 7//6 8//6 11//6 10//6
f 10//7 11//7 14//7 13//7
f 8//8 9//8 12//8 11//8
f 11//9 12//9 15//9 14//9
f 13//10 14//11 17//11 16//10
f 16//12 17//13 20//13 19//12
f 14//11 15//14 18//14 17//11
f 17//13 18//15 21//15 20//13
f 19//16 20//16 23//16 22//16
f 22//17 23//17 2//17 1//17
f 20//18 21//18 24//18 23//18
f 23//19 24//19 3//19 2//19
f 3//20 24//20 25//20 6//20
f 6//21 25//22 12//22 9//21
f 24//23 21//23 18//23 25//23
f 25//22 18//24 15//24 12//22
f 19//25 22//25 26//25 16//25
f 16//25 26//25 10//25 13//25
f 22//25 1//25 4//25 26//25
f 26//25 4//25 7//25 10//25

