# WaveFront *.obj file (generated by CINEMA 4D)

mtllib ./Rock7.mtl

v -1.18959474563599 -0.84646672010422 -2.52888298034668
v -1.57776069641113 -0.46225297451019 -2.88719367980957
v -1.27533423900604 0.03721204772592 -2.58424043655396
v -0.98399168252945 0.34995025396347 -0.83551114797592
v -0.17638729512691 -0.84646672010422 -2.46088290214539
v -0.12609873712063 -0.43966782093048 -2.76678466796875
v -0.18953038752079 0.21827024221420 -1.43140196800232
v 0.05413863062859 0.64892774820328 -1.04247212409973
v 1.02080404758453 -0.84646672010422 -2.37383008003235
v 0.93289583921432 -0.40810295939445 -2.55257987976074
v 1.14926159381866 0.16011030972004 -1.44428730010986
v 0.96018189191818 0.56103533506393 -0.98002940416336
v 2.21109867095947 -0.84646672010422 -1.05081415176392
v 2.14088749885559 -0.46094280481338 -1.37182056903839
v 1.99186217784882 -0.02127794176340 -2.45088648796082
v 1.55746352672577 0.30243363976479 -0.98811084032059
v 3.57456421852112 -0.84646672010422 0.11103723943233
v 3.66605806350708 -0.60365384817123 -0.15243968367577
v 3.23605418205261 0.00023017244530 -0.17333482205868
v 2.39965152740479 0.25568360090256 0.09509938210249
v 3.02300310134888 -0.84646672010422 1.05030703544617
v 3.15443491935730 -0.57909929752350 0.81661891937256
v 2.93043041229248 0.22902615368366 0.81145948171616
v 2.65315794944763 0.16175192594528 0.48665246367455
v 2.80385899543762 -0.84646672010422 1.98644518852234
v 2.78987598419189 -0.49949666857719 1.85478591918945
v 2.10746145248413 0.15478156507015 1.56515645980835
v 2.12138867378235 0.48999968171120 1.21514523029327
v 0.71054852008820 -0.84646672010422 0.91644591093063
v 1.00221025943756 -0.47001069784164 1.97973549365997
v 1.05798840522766 0.21057243645191 2.09096574783325
v 1.01447129249573 0.52216976881027 2.03301143646240
v -0.00300941872410 -0.84646672010422 1.89747619628906
v -0.00563377607614 -0.45319432020187 1.97259664535522
v -0.14902961254120 0.44990769028664 2.18530464172363
v -0.00681815668941 0.95109921693802 1.91362035274506
v -1.27091419696808 -0.84646672010422 0.67292469739914
v -0.95368862152100 -0.30524381995201 1.65730667114258
v -1.05933260917664 0.16908155381680 1.39193844795227
v -0.74943101406097 0.77901023626328 1.45594227313995
v -1.66784524917603 -0.84646672010422 -1.01590275764465
v -1.57676076889038 -0.38466894626617 0.51665097475052
v -1.26138567924500 0.62883794307709 0.93960905075073
v -0.87918573617935 0.98244148492813 0.87965494394302
v -1.74778711795807 -0.84646672010422 -2.27157735824585
v -1.75401353836060 -0.62388569116592 -1.32467651367188
v -1.55637300014496 0.01393460482359 -0.21344690024853
v -1.14738416671753 0.40507003664970 -0.07497525960207
v -0.11535693705082 0.72856950759888 -0.15981915593147
v -0.08677706122398 0.91802471876144 0.91928881406784
v 1.06239688396454 0.63025677204132 -0.24353000521660
v 1.19922518730164 0.94119793176651 0.80219721794128
v -0.00324084307067 -0.84646672010422 -0.77778649330139
v 0.35846027731895 -0.84646672010422 -1.41154575347900
v 1.79044687747955 -0.84646672010422 -0.41379007697105
v 1.39304029941559 -0.84646672010422 -1.42117941379547
v -0.12796661257744 -0.84646672010422 -3.39323449134827
v 0.01851055212319 -0.54308950901031 -3.21330261230469
v 0.93158704042435 -0.84646672010422 -3.31226372718811
v 0.96386903524399 -0.46859848499298 -3.37893056869507
v 0.01059904973954 1.02234661579132 -0.17992213368416
v -0.00695735588670 1.30961370468140 0.87258422374725
v 0.89124810695648 0.88848650455475 -0.27444836497307
v 0.93917161226273 0.98337531089783 0.82384085655212
v -0.01495786290616 0.72247934341431 -0.69709485769272
v 0.53111320734024 0.73207664489746 -0.67614644765854
v -0.10102270543575 0.97790509462357 -0.14574871957302
v 1.07551026344299 0.83779519796371 -0.20024198293686
# 68 vertices

vn 0.06340809166431 -0.62212508916855 -0.78034597635269
vn -0.06035156175494 0.21131227910519 -0.97555357217789
vn 0.69190579652786 -0.27227804064751 -0.66867858171463
vn 0.46792075037956 0.54078543186188 -0.69900023937225
vn 0.05132272094488 0.88997405767441 -0.45311391353607
vn 0.08420295268297 0.03131640329957 -0.99595642089844
vn 0.26603889465332 0.79517596960068 -0.54490232467651
vn 0.07080927491188 0.69925057888031 -0.71136116981506
vn 0.13256494700909 0.90627074241638 -0.40137249231338
vn 0.48504480719566 -0.61826741695404 -0.61844724416733
vn 0.87058907747269 0.09299323707819 0.48314276337624
vn 0.95821428298950 -0.01808781549335 0.28547886013985
vn 0.75808620452881 -0.15235039591789 -0.63410937786102
vn 0.85865390300751 0.42226618528366 0.29052492976189
vn 0.70742255449295 0.50804603099823 0.49136802554131
vn 0.24157305061817 0.95977330207825 -0.14310024678707
vn 0.29156786203384 0.94146823883057 -0.16919158399105
vn 0.27059257030487 0.95252442359924 -0.13955961167812
vn 0.20319665968418 0.97185105085373 -0.11923334747553
vn 0.16437563300133 0.98180222511292 -0.09510552883148
vn 0.37865179777145 0.90964138507843 0.17080810666084
vn 0.37999889254570 0.91132396459579 0.15839675068855
vn -0.08441673964262 -0.38764205574989 0.91793650388718
vn 0.49063786864281 -0.65372180938721 0.57612699270248
vn -0.45044311881065 -0.44870671629906 0.77185702323914
vn 0.24277681112289 0.28357180953026 0.92771035432816
vn 0.01682445593178 -0.19795510172844 0.98006671667099
vn -0.43924167752266 0.09027551114559 0.89382159709930
vn 0.47409462928772 0.43716701865196 0.76427692174912
vn 0.05847031623125 0.31123471260071 0.94853264093399
vn -0.61193090677261 0.39815002679825 0.68338650465012
vn -0.63693517446518 0.45077791810036 0.62539011240005
vn -0.83371680974960 -0.43867155909538 0.33538571000099
vn -0.96463298797607 -0.24745884537697 0.09081469476223
vn -0.83330708742142 -0.33537206053734 -0.43945980072021
vn -0.88333922624588 0.06562136113644 0.46411815285683
vn -0.97197747230530 0.21668037772179 0.09115626662970
vn -0.86686730384827 0.49354347586632 -0.07039815187454
vn -0.65763479471207 0.50035923719406 0.56316703557968
vn -0.65511536598206 0.71896892786026 -0.23218011856079
vn -0.62903732061386 0.75646758079529 -0.17907771468163
vn -0.59987324476242 0.79025495052338 -0.12509675323963
vn -0.30326199531555 0.94279831647873 -0.13843242824078
vn 0.04667898267508 0.95353370904922 -0.29764825105667
vn 0.04033943265676 0.95018470287323 -0.30906596779823
vn 0.34053766727448 0.91985356807709 -0.19468812644482
vn 0.33651909232140 0.92813318967819 -0.15913411974907
vn -0.11048801243305 0.92636233568192 -0.36006286740303
vn 0.22388759255409 0.95969957113266 -0.16985593736172
vn 0.33204659819603 0.93516093492508 -0.12336545437574
vn -0.18311020731926 0.96576416492462 0.18376690149307
vn 0.21043400466442 0.96809941530228 0.13601854443550
vn 0.38128566741943 0.91286188364029 0.14596022665501
vn 0.00000000000000 -1.00000000000000 0.00000000000000
vn 0.00000000000000 0.00000000000000 0.00000000000000
vn 0.99793791770935 0.05263001471758 -0.03674302995205
vn -0.03814313188195 0.98808902502060 -0.14908102154732
vn -0.91130506992340 0.34654885530472 -0.22232185304165
vn -0.09731926769018 -0.09739691019058 -0.99047607183456
vn 0.53113710880280 0.82079178094864 -0.21022421121597
vn -0.28000983595848 -0.94691729545593 0.15793074667454
vn -0.95446634292603 0.29286932945251 -0.05675847828388
vn 0.05301005393267 0.95670944452286 -0.28617647290230
vn 0.73880195617676 0.59320777654648 -0.31980642676353
vn 0.04345015063882 -0.13308714330196 0.99015146493912
vn -0.98298126459122 0.00128317566123 -0.18370126187801
# 66 normals

vt 0.00000000000000 0.00000000000000 0.00000000000000
vt 0.00000000000000 0.33333337306976 0.00000000000000
vt 0.33333334326744 0.33333337306976 0.00000000000000
vt 0.33333334326744 0.00000000000000 0.00000000000000
vt 0.66666668653488 0.33333337306976 0.00000000000000
vt 0.66666668653488 0.00000000000000 0.00000000000000
vt 1.00000000000000 0.33333337306976 0.00000000000000
vt 1.00000000000000 0.00000000000000 0.00000000000000
vt 0.00000000000000 0.66666668653488 0.00000000000000
vt 0.33333334326744 0.66666668653488 0.00000000000000
vt 0.66666668653488 0.66666668653488 0.00000000000000
vt 1.00000000000000 0.66666668653488 0.00000000000000
vt 0.00000000000000 1.00000000000000 0.00000000000000
vt 0.33333334326744 1.00000000000000 0.00000000000000
vt 0.66666668653488 1.00000000000000 0.00000000000000
vt 1.00000000000000 1.00000000000000 0.00000000000000
# 16 texture coordinates

o Rock.1
usemtl YellowDark
f 1/1/1 2/2/1 6/3/1 5/4/1
f 57/4/2 58/3/2 60/5/2 59/6/2
f 9/6/3 10/5/3 14/7/3 13/8/3
f 2/2/4 3/9/4 7/10/4 6/3/4
f 6/3/5 7/10/5 11/11/5 10/5/5
f 10/5/6 11/11/6 15/12/6 14/7/6
f 3/9/7 4/13/7 8/14/7 7/10/7
f 7/10/8 8/14/8 12/15/8 11/11/8
f 11/11/9 12/15/9 16/16/9 15/12/9
f 13/1/10 14/2/10 18/3/10 17/4/10
f 17/4/11 18/3/11 22/5/11 21/6/11
f 21/6/12 22/5/12 26/7/12 25/8/12
f 14/2/13 15/9/13 19/10/13 18/3/13
f 18/3/14 19/10/14 23/11/14 22/5/14
f 22/5/15 23/11/15 27/12/15 26/7/15
f 15/9/16 16/13/17 20/14/18 19/10/19
f 19/10/19 20/14/18 24/15/20 23/11/20
f 23/11/21 24/15/22 28/16/22 27/12/21
f 25/1/23 26/2/23 30/3/23 29/4/23
f 29/4/24 30/3/24 34/5/24 33/6/24
f 33/6/25 34/5/25 38/7/25 37/8/25
f 26/2/26 27/9/26 31/10/26 30/3/26
f 30/3/27 31/10/27 35/11/27 34/5/27
f 34/5/28 35/11/28 39/12/28 38/7/28
f 27/9/29 28/13/29 32/14/29 31/10/29
f 31/10/30 32/14/30 36/15/30 35/11/30
f 35/11/31 36/15/31 40/16/32 39/12/32
f 37/1/33 38/2/33 42/3/33 41/4/33
f 41/4/34 42/3/34 46/5/34 45/6/34
f 45/6/35 46/5/35 2/7/35 1/8/35
f 38/2/36 39/9/36 43/10/36 42/3/36
f 42/3/37 43/10/37 47/11/37 46/5/37
f 46/5/38 47/11/38 3/12/38 2/7/38
f 39/9/32 40/13/32 44/14/39 43/10/39
f 43/10/40 44/14/40 48/15/41 47/11/41
f 47/11/41 48/15/41 4/16/42 3/12/42
f 4/1/43 48/2/43 49/3/43 8/4/43
f 65/4/44 67/3/45 68/5/45 66/6/44
f 12/6/46 51/5/47 20/7/18 16/8/17
f 48/2/48 44/9/48 50/10/48 49/3/48
f 61/3/49 62/10/49 64/11/49 63/5/49
f 51/5/47 52/11/50 24/12/50 20/7/18
f 44/9/51 40/13/51 36/14/51 50/10/51
f 50/10/52 36/14/52 32/15/52 52/11/52
f 52/11/53 32/15/53 28/16/22 24/12/22
f 37/1/54 41/2/54 53/3/54 33/4/54
f 33/4/55 53/3/55 55/5/55 29/6/55
f 29/6/54 55/5/54 21/7/54 25/8/54
f 41/2/54 45/9/54 54/10/54 53/3/54
f 53/3/54 54/10/54 56/11/54 55/5/54
f 55/5/54 56/11/54 17/12/54 21/7/54
f 45/9/54 1/13/54 5/14/54 54/10/54
f 54/10/54 5/14/54 9/15/54 56/11/54
f 56/11/54 9/15/54 13/16/54 17/12/54
f 5/4/54 57/4/54 59/6/54 9/6/54
f 9/6/56 59/6/56 60/5/56 10/5/56
f 10/5/57 60/5/57 58/3/57 6/3/57
f 6/3/58 58/3/58 57/4/58 5/4/58
f 49/3/59 61/3/59 63/5/59 51/5/59
f 51/5/60 63/5/60 64/11/60 52/11/60
f 52/11/61 64/11/61 62/10/61 50/10/61
f 50/10/62 62/10/62 61/3/62 49/3/62
f 8/4/63 65/4/44 66/6/44 12/6/63
f 12/6/64 66/6/64 68/5/64 51/5/64
f 51/5/65 68/5/65 67/3/65 49/3/65
f 49/3/66 67/3/66 65/4/66 8/4/66

