# WaveFront *.obj file (generated by CINEMA 4D)

mtllib ./Rock5.mtl

v -1.12479972839355 -1.14750480651855 -1.13719916343689
v -1.15603482723236 -0.30993935465813 -1.14793622493744
v -0.94422769546509 0.34890833497047 -0.93718540668488
v -0.73958331346512 0.73020786046982 -0.84283453226089
v -0.41780865192413 -1.24833953380585 -1.08732819557190
v -0.38379868865013 -0.27292391657829 -1.29812371730804
v -0.43594563007355 0.43865814805031 -1.20902788639069
v -0.29937282204628 0.94055092334747 -0.93269670009613
v 0.38887146115303 -1.17493617534637 -1.00315749645233
v 0.33727157115936 -0.23013600707054 -1.13341438770294
v 0.42040216922760 0.46925327181816 -1.19676363468170
v 0.30383831262588 0.93142205476761 -0.89285236597061
v 1.13506984710693 -1.27624142169952 -0.94010639190674
v 1.07418692111969 -0.30243760347366 -1.14968538284302
v 1.01172578334808 0.35167735815048 -1.03213012218475
v 0.70199537277222 0.65989196300507 -0.89855951070786
v 1.55833053588867 -1.39696204662323 -0.15658637881279
v 1.35585653781891 -0.48771888017654 -0.33783984184265
v 1.06775355339050 0.39859583973885 -0.35166004300117
v 0.77257221937180 0.72295963764191 -0.16445648670197
v 1.22666108608246 -1.18865358829498 0.50035941600800
v 1.31149804592133 -0.46757912635803 0.33696484565735
v 1.15935218334198 0.39560928940773 0.33422812819481
v 0.96154552698135 0.65288132429123 0.10817881673574
v 1.05878973007202 -1.37057161331177 1.13422191143036
v 1.05295085906982 -0.32492318749428 1.04653882980347
v 1.13560318946838 0.24054796993732 0.84358000755310
v 1.15588486194611 0.77592456340790 0.61067038774490
v 0.16239383816719 -1.25077807903290 1.23093092441559
v 0.33765882253647 -0.32488524913788 1.07105219364166
v 0.37429270148277 0.22307230532169 1.14434468746185
v 0.34539002180099 0.66046077013016 1.10585176944733
v -0.33379817008972 -1.00586569309235 1.00513887405396
v -0.33542895317078 -0.33183914422989 1.05495762825012
v -0.42831060290337 0.38008376955986 1.20124864578247
v -0.33628207445145 1.01518034934998 1.01586174964905
v -1.17718517780304 -1.30108761787415 1.07942795753479
v -0.96017235517502 -0.17803522944450 0.91367614269257
v -1.03305685520172 0.38092172145844 0.73728030920029
v -0.82199627161026 0.68656593561172 0.75322306156158
v -1.47303628921509 -1.26430606842041 0.16094996035099
v -1.13839781284332 -0.31265726685524 0.35636898875237
v -1.17150652408600 0.42808613181114 0.41880774497986
v -0.90942269563675 0.90120559930801 0.37091279029846
v -1.26295518875122 -1.28352880477905 -0.69156736135483
v -1.28995406627655 -0.29469233751297 -0.34669652581215
v -1.15407669544220 0.41299206018448 -0.39588829874992
v -0.85051321983337 0.85310465097427 -0.32411387562752
v -0.38397192955017 1.03768050670624 -0.33593317866325
v -0.38742825388908 0.90852791070938 0.36302495002747
v 0.41540533304214 1.06799221038818 -0.39585280418396
v 0.51658123731613 1.20063054561615 0.32318520545959
v -0.33333334326744 -1.00000000000000 0.33333334326744
v -0.33333334326744 -1.00000000000000 -0.33333334326744
v 0.33333334326744 -1.00000000000000 0.33333334326744
v 0.33333334326744 -1.00000000000000 -0.33333334326744
v -0.39044290781021 -1.04585492610931 -1.71742153167725
v -0.28382772207260 -0.39899826049805 -1.60722172260284
v 0.34801295399666 -1.01653099060059 -1.67167806625366
v 0.37064665555954 -0.26755946874619 -1.71825611591339
v -0.29510790109634 1.43434226512909 -0.34848698973656
v -0.33371102809906 1.47048223018646 0.33367681503296
v 0.29916000366211 1.39851462841034 -0.41682049632072
v 0.33084598183632 1.47115361690521 0.33208858966827
v -0.33273774385452 1.29795515537262 -0.99223816394806
v 0.03283829987049 1.11145639419556 -0.69167554378510
v -0.37425372004509 1.35515356063843 -0.32635083794594
v 0.42661577463150 1.35808050632477 -0.36573797464371
# 68 vertices

vn -0.07654647529125 -0.11733227223158 -0.99013823270798
vn -0.07026894390583 0.06764840334654 -0.99523162841797
vn 0.00953047070652 -0.17288963496685 -0.98489511013031
vn -0.34972748160362 0.26302936673164 -0.89916974306107
vn 0.12031026184559 0.00521292537451 -0.99272263050079
vn 0.12142381072044 0.01794000901282 -0.99243861436844
vn 0.12251754105091 0.03066417016089 -0.99199253320694
vn -0.42040717601776 0.46413344144821 -0.77963966131210
vn 0.02890104241669 0.50870937108994 -0.86045306921005
vn 0.35156476497650 0.60206967592239 -0.71687817573547
vn 0.91668748855591 0.04647075384855 -0.39689359068871
vn 0.95828247070312 0.11571665853262 0.26135098934174
vn 0.96224021911621 0.06494963169098 0.26433932781219
vn 0.95706611871719 0.05697391182184 0.28421536087990
vn 0.96328163146973 0.03945843130350 0.26557764410973
vn 0.95204550027847 -0.00199530483223 0.30594995617867
vn 0.96356856822968 0.20474401116371 -0.17209149897099
vn 0.96930688619614 0.22335277497768 -0.10275050252676
vn 0.97001707553864 0.24080289900303 -0.03287650272250
vn 0.97117078304291 0.08077505975962 0.22428253293037
vn 0.68798756599426 0.71625179052353 -0.11686065047979
vn 0.68008619546890 0.71237230300903 -0.17322929203510
vn 0.71316772699356 0.66861540079117 -0.21058309078217
vn 0.71681785583496 0.68079066276550 -0.15065245330334
vn 0.74312490224838 0.62188529968262 -0.24703054130077
vn 0.74333244562149 0.64313018321991 -0.18395754694939
vn 0.97027057409286 0.14802567660809 -0.19147698581219
vn 0.07986574620008 0.11489288508892 0.99016213417053
vn 0.13919021189213 0.09296476840973 0.98589229583740
vn -0.24022902548313 0.05544413626194 0.96913152933121
vn -0.17087385058403 0.04469413682818 0.98427867889404
vn -0.10063780099154 0.03371373564005 0.99435174465179
vn 0.19795534014702 0.07066308706999 0.97766065597534
vn 0.01121756061912 -0.16980199515820 0.98541432619095
vn -0.39393496513367 0.02394956164062 0.91882622241974
vn 0.41263818740845 0.22526246309280 0.88260215520859
vn 0.01542927883565 0.17356348037720 0.98470181226730
vn -0.58657360076904 0.32862031459808 0.74022978544235
vn -0.93046641349792 0.23939780890942 0.27734634280205
vn -0.98401349782944 0.17736311256886 -0.01611696742475
vn -0.99088513851166 0.12849310040474 0.04044925794005
vn -0.97153228521347 -0.00433682091534 -0.23686744272709
vn -0.93249332904816 -0.03135031834245 0.35982412099838
vn -0.99217295646667 0.07889898866415 0.09678754955530
vn -0.92943233251572 0.25180333852768 -0.26972314715385
vn -0.76363950967789 0.48308926820755 0.42834499478340
vn -0.84946513175964 0.52328896522522 -0.06765869259834
vn -0.77219116687775 0.54216670989990 -0.33132466673851
vn -0.40806898474693 0.87894093990326 -0.24686530232430
vn 0.43050581216812 0.68516200780869 -0.58755230903625
vn 0.66997122764587 0.70617419481277 -0.22903411090374
vn 0.70683115720749 0.65391045808792 -0.26979762315750
vn -0.19140522181988 0.98024028539658 0.04992986097932
vn 0.02374712750316 0.99684333801270 -0.07575886696577
vn 0.73962557315826 0.59788566827774 -0.30900931358337
vn -0.38583695888519 0.90421760082245 0.18308554589748
vn 0.13239637017250 0.97202712297440 0.19399604201317
vn 0.51629769802094 0.84968376159668 0.10711771249771
vn 0.28610345721245 -0.95617294311523 -0.06227487325668
vn 0.26515781879425 -0.96415644884110 -0.00967573188245
vn -0.15571798384190 -0.97423660755157 -0.16314089298248
vn -0.15422509610653 -0.96020334959030 -0.23286069929600
vn -0.15195181965828 -0.94131147861481 -0.30140224099159
vn 0.24334535002708 -0.96898806095123 0.04295504093170
vn 0.00000000000000 -1.00000000000000 0.00000000000000
vn -0.27339103817940 -0.95747274160385 0.09221330285072
vn -0.25321188569069 -0.96094220876694 0.11168621480465
vn 0.03381754830480 -0.99928957223892 -0.01663486659527
vn 0.02724305540323 -0.95961523056030 0.27999362349510
vn -0.23283056914806 -0.96364444494247 0.13106995820999
vn 0.08457320183516 -0.95922803878784 -0.26968306303024
vn 0.99987339973450 0.01369357295334 -0.00810693297535
vn -0.09127659350634 0.96984273195267 -0.22599482536316
vn -0.96982067823410 0.12265000492334 -0.21072439849377
vn -0.09295749664307 -0.04696119204164 -0.99456197023392
vn 0.88241177797318 0.44747123122215 -0.14532344043255
vn 0.01523202285171 0.00912250950933 0.99984234571457
vn -0.98764485120773 0.15619145333767 -0.01272220537066
vn 0.38727295398712 0.41104516386986 -0.82526451349258
vn 0.66700714826584 0.49548208713531 -0.55641621351242
vn 0.06262850761414 -0.06876109540462 0.99566537141800
vn -0.99481081962585 -0.04003225266933 -0.09353532642126
# 82 normals

vt 0.00000000000000 0.00000000000000 0.00000000000000
vt 0.00000000000000 0.33333337306976 0.00000000000000
vt 0.33333334326744 0.33333337306976 0.00000000000000
vt 0.33333334326744 0.00000000000000 0.00000000000000
vt 0.66666668653488 0.33333337306976 0.00000000000000
vt 0.66666668653488 0.00000000000000 0.00000000000000
vt 1.00000000000000 0.33333337306976 0.00000000000000
vt 1.00000000000000 0.00000000000000 0.00000000000000
vt 0.00000000000000 0.66666668653488 0.00000000000000
vt 0.33333334326744 0.66666668653488 0.00000000000000
vt 0.66666668653488 0.66666668653488 0.00000000000000
vt 1.00000000000000 0.66666668653488 0.00000000000000
vt 0.00000000000000 1.00000000000000 0.00000000000000
vt 0.33333334326744 1.00000000000000 0.00000000000000
vt 0.66666668653488 1.00000000000000 0.00000000000000
vt 1.00000000000000 1.00000000000000 0.00000000000000
# 16 texture coordinates

o Rock
usemtl YellowDark
f 1/1/1 2/2/1 6/3/1 5/4/1
f 57/4/2 58/3/2 60/5/2 59/6/2
f 9/6/3 10/5/3 14/7/3 13/8/3
f 2/2/4 3/9/4 7/10/4 6/3/4
f 6/3/5 7/10/5 11/11/6 10/5/6
f 10/5/6 11/11/6 15/12/7 14/7/7
f 3/9/8 4/13/8 8/14/8 7/10/8
f 7/10/9 8/14/9 12/15/9 11/11/9
f 11/11/10 12/15/10 16/16/10 15/12/10
f 13/1/11 14/2/11 18/3/11 17/4/11
f 17/4/12 18/3/12 22/5/13 21/6/14
f 21/6/14 22/5/13 26/7/15 25/8/16
f 14/2/17 15/9/17 19/10/18 18/3/18
f 18/3/18 19/10/18 23/11/19 22/5/19
f 22/5/13 23/11/20 27/12/20 26/7/15
f 15/9/21 16/13/22 20/14/23 19/10/24
f 19/10/24 20/14/23 24/15/25 23/11/26
f 23/11/27 24/15/27 28/16/27 27/12/27
f 25/1/28 26/2/29 30/3/29 29/4/28
f 29/4/30 30/3/30 34/5/31 33/6/31
f 33/6/31 34/5/31 38/7/32 37/8/32
f 26/2/29 27/9/33 31/10/33 30/3/29
f 30/3/34 31/10/34 35/11/34 34/5/34
f 34/5/35 35/11/35 39/12/35 38/7/35
f 27/9/36 28/13/36 32/14/36 31/10/36
f 31/10/37 32/14/37 36/15/37 35/11/37
f 35/11/38 36/15/38 40/16/38 39/12/38
f 37/1/39 38/2/39 42/3/39 41/4/39
f 41/4/40 42/3/41 46/5/41 45/6/40
f 45/6/42 46/5/42 2/7/42 1/8/42
f 38/2/43 39/9/43 43/10/43 42/3/43
f 42/3/41 43/10/44 47/11/44 46/5/41
f 46/5/45 47/11/45 3/12/45 2/7/45
f 39/9/46 40/13/46 44/14/46 43/10/46
f 43/10/47 44/14/47 48/15/47 47/11/47
f 47/11/48 48/15/48 4/16/48 3/12/48
f 4/1/49 48/2/49 49/3/49 8/4/49
f 65/4/50 67/3/50 68/5/50 66/6/50
f 12/6/51 51/5/52 20/7/23 16/8/22
f 48/2/53 44/9/53 50/10/53 49/3/53
f 61/3/54 62/10/54 64/11/54 63/5/54
f 51/5/52 52/11/55 24/12/25 20/7/23
f 44/9/56 40/13/56 36/14/56 50/10/56
f 50/10/57 36/14/57 32/15/57 52/11/57
f 52/11/58 32/15/58 28/16/58 24/12/58
f 37/1/59 41/2/60 53/3/60 33/4/59
f 33/4/61 53/3/61 55/5/62 29/6/62
f 29/6/62 55/5/62 21/7/63 25/8/63
f 41/2/60 45/9/64 54/10/64 53/3/60
f 53/3/65 54/10/65 56/11/65 55/5/65
f 55/5/66 56/11/67 17/12/67 21/7/66
f 45/9/68 1/13/68 5/14/68 54/10/68
f 54/10/69 5/14/69 9/15/69 56/11/69
f 56/11/67 9/15/70 13/16/70 17/12/67
f 5/4/71 57/4/71 59/6/71 9/6/71
f 9/6/72 59/6/72 60/5/72 10/5/72
f 10/5/73 60/5/73 58/3/73 6/3/73
f 6/3/74 58/3/74 57/4/74 5/4/74
f 49/3/75 61/3/75 63/5/75 51/5/75
f 51/5/76 63/5/76 64/11/76 52/11/76
f 52/11/77 64/11/77 62/10/77 50/10/77
f 50/10/78 62/10/78 61/3/78 49/3/78
f 8/4/79 65/4/79 66/6/79 12/6/79
f 12/6/80 66/6/80 68/5/80 51/5/80
f 51/5/81 68/5/81 67/3/81 49/3/81
f 49/3/82 67/3/82 65/4/82 8/4/82

