# WaveFront *.obj file (generated by CINEMA 4D)

mtllib ./jumper.mtl

v -18.25688934326172 -3.77307581901550 -10.88937854766846
v -18.25688934326172 3.77307581901550 -10.88937854766846
v 18.25688934326172 -3.77307581901550 -10.88937854766846
v 18.25688934326172 3.77307581901550 -10.88937854766846
v 18.25688934326172 -3.77307581901550 10.88937854766846
v 18.25688934326172 -3.56094408035278 10.88937854766846
v -18.25688934326172 -3.77307581901550 10.88937854766846
v -18.25688934326172 -3.56094408035278 10.88937854766846
v 18.25688934326172 1.66036188602448 -4.73114633560181
v -18.25688934326172 1.66036188602448 -4.93001508712769
# 10 vertices

vn 0.00000000000000 0.00000000000000 -1.00000000000000
vn 1.00000000000000 0.00000000000000 0.00000000000000
vn 0.00000000000000 0.00000000000000 0.00000000000000
vn 0.00000000000000 0.00000000000000 1.00000000000000
vn -1.00000000000000 0.00000000000000 0.00000000000000
vn -0.00090994860511 0.94421494007111 0.32932853698730
vn -0.00088665116346 0.94664239883423 0.32228460907936
vn 0.00000000000000 -1.00000000000000 0.00000000000000
vn -0.00086330447812 0.94901728630066 0.31522276997566
vn -1.00000000000000 0.00000000000000 0.00000000000000
# 10 normals

vt 0.00000000000000 0.00000000000000 0.00000000000000
vt 0.00000000000000 1.00000000000000 0.00000000000000
vt 1.00000000000000 1.00000000000000 0.00000000000000
vt 1.00000000000000 0.00000000000000 0.00000000000000
vt 0.17290720343590 1.00000000000000 0.00000000000000
vt 0.83622413873672 1.00000000000000 0.00000000000000
vt 0.00000000000000 0.16377592086792 0.00000000000000
vt 1.00000000000000 0.17290723323822 0.00000000000000
# 8 texture coordinates

o Cube.1
usemtl YellowDark
f 1/1/1 2/2/1 4/3/1 3/4/1
f 3/1/2 4/2/2 9/5/2 6/3/2 5/4/2
f 5/1/4 6/2/4 8/3/4 7/4/4
f 7/1/5 8/2/5 10/6/5 2/3/10 1/4/5
f 7/1/8 1/2/8 3/3/8 5/4/8
f 10/7/7 8/2/9 6/3/9 9/8/7

usemtl RedCar
f 2/1/6 10/7/7 9/8/7 4/4/6

