# WaveFront *.obj file (generated by CINEMA 4D)

mtllib ./Rock6.mtl

v -1.63185453414917 -1.00000000000000 -1.00000000000000
v -1.00000000000000 0.00000000000000 -0.74192118644714
v -1.00000000000000 0.67700809240341 -0.74192118644714
v 0.00000000000000 -1.00000000000000 -1.00000000000000
v 0.00000000000000 0.00000000000000 -1.00000000000000
v 0.00000000000000 0.67700809240341 -1.00000000000000
v 1.71736240386963 -1.00000000000000 -2.24440360069275
v 1.00000000000000 0.00000000000000 -1.29605424404144
v 0.90984028577805 0.26637238264084 -0.88388013839722
v 2.46838998794556 -1.00000000000000 0.00000000000000
v 1.00000000000000 0.00000000000000 0.00000000000000
v 1.00000000000000 0.42747247219086 0.00000000000000
v 1.71736240386963 -1.00000000000000 0.73181986808777
v 1.00000000000000 0.00000000000000 0.73181986808777
v 0.83418726921082 0.68609422445297 0.41077461838722
v 0.00000000000000 -1.00000000000000 1.00000000000000
v 0.00000000000000 0.00000000000000 1.00000000000000
v 0.00000000000000 1.00000000000000 0.41077461838722
v -1.87378954887390 -1.00000000000000 1.00000000000000
v -1.00000000000000 0.00000000000000 1.00000000000000
v -1.00000000000000 1.00000000000000 0.41077461838722
v -2.25733780860901 -1.00000000000000 0.00000000000000
v -1.87356543540955 0.00000000000000 0.00000000000000
v -1.00000000000000 1.00000000000000 0.00000000000000
v 0.00000000000000 1.00000000000000 0.00000000000000
v 0.00000000000000 -1.00000000000000 0.00000000000000
# 26 vertices

vn -0.11880794912577 0.19387729465961 -0.97380506992340
vn -0.43102240562439 0.16858422756195 -0.88645309209824
vn -0.24989101290703 0.00000000000000 -0.96827399730682
vn -0.02246879972517 0.46301016211510 -0.88606810569763
vn 0.69640475511551 0.71141523122787 -0.09438617527485
vn 0.63971430063248 0.68674933910370 0.34516796469688
vn 0.95091956853867 0.29386660456657 -0.09692486375570
vn 0.97398316860199 0.12046508491039 0.19195042550564
vn 0.20563621819019 0.09186194092035 0.97430753707886
vn 0.00000000000000 0.00000000000000 1.00000000000000
vn 0.19757913053036 0.47320050001144 0.85851252079010
vn 0.00000000000000 0.50765371322632 0.86156117916107
vn -0.76885044574738 0.45223042368889 0.45205819606781
vn -0.68280935287476 0.40975189208984 -0.60487580299377
vn -0.71652472019196 0.37794062495232 -0.58630466461182
vn -0.90254169702530 0.30448189377785 0.30448189377785
vn -0.74845343828201 0.34518691897392 -0.56627148389816
vn -0.03961564600468 0.93460321426392 -0.35347905755043
vn 0.45185932517052 0.85995721817017 -0.23726931214333
vn 0.43529763817787 0.87734830379486 -0.20193053781986
vn 0.00000000000000 1.00000000000000 0.00000000000000
vn 0.41794130206108 0.89313769340515 -0.16622313857079
vn 0.00000000000000 -1.00000000000000 0.00000000000000
# 23 normals

o Cube
usemtl YellowDark
f 1//1 2//1 5//1 4//1
f 4//2 5//2 8//2 7//2
f 2//3 3//3 6//3 5//3
f 5//4 6//4 9//4 8//4
f 7//5 8//5 11//5 10//5
f 10//6 11//6 14//6 13//6
f 8//7 9//7 12//7 11//7
f 11//8 12//8 15//8 14//8
f 13//9 14//9 17//9 16//9
f 16//10 17//10 20//10 19//10
f 14//11 15//11 18//11 17//11
f 17//12 18//12 21//12 20//12
f 19//13 20//13 23//13 22//13
f 22//14 23//15 2//15 1//14
f 20//16 21//16 24//16 23//16
f 23//15 24//17 3//17 2//15
f 3//18 24//18 25//18 6//18
f 6//19 25//20 12//20 9//19
f 24//21 21//21 18//21 25//21
f 25//20 18//22 15//22 12//20
f 19//23 22//23 26//23 16//23
f 16//23 26//23 10//23 13//23
f 22//23 1//23 4//23 26//23
f 26//23 4//23 7//23 10//23

