# WaveFront *.obj file (generated by CINEMA 4D)

mtllib ./Rock2.mtl

v -0.33844178915024 0.37561917304993 -0.87083619832993
v 0.88593012094498 0.39944791793823 1.19071471691132
v 0.38460481166840 1.20561087131500 -1.13400363922119
v 0.97517627477646 1.20561087131500 0.33628514409065
v 1.37863957881927 0.37561881542206 -1.49580276012421
v 2.37677836418152 0.37561881542206 -0.27023112773895
v 1.05342948436737 1.07899105548859 -1.37743592262268
v 1.94249761104584 0.91981554031372 -0.45153543353081
v -0.63553577661514 -0.57538086175919 -1.02234077453613
v 1.93957781791687 -0.86729085445404 0.53819501399994
v 2.44536757469177 -0.89111989736557 -0.12668372690678
v 1.08857810497284 -0.57538115978241 -1.29988968372345
v 1.34131097793579 -1.49563026428223 -0.67980867624283
v 1.60083246231079 -1.43329215049744 0.03322088345885
v 2.11621522903442 -1.25525820255280 -0.15436314046383
v 1.85669374465942 -1.25525820255280 -0.86739271879196
v -0.24201706051826 1.60653901100159 -0.42656162381172
v 0.22785098850727 1.66410255432129 0.34120026230812
v -0.81718206405640 1.11709690093994 -2.29014706611633
v -2.33134388923645 0.98596590757370 -1.40098178386688
v -2.84240865707397 0.78723490238190 -0.05707093700767
v -2.05422544479370 1.14717936515808 0.51033866405487
v -1.74528515338898 1.16416215896606 2.11754584312439
v -1.61445915699005 1.39565694332123 1.69352364540100
v -0.39150062203407 1.52987968921661 1.50448036193848
v -0.08325098454952 1.24911153316498 1.71403372287750
v 0.46874764561653 0.39944797754288 1.08344054222107
v 1.30882942676544 -0.86729085445404 0.50865256786346
v 0.53782033920288 0.39944791793823 1.55860984325409
v 0.29479691386223 -0.86729073524475 1.37803983688354
v -1.02980053424835 0.39944812655449 2.17868471145630
v -1.74628436565399 -0.56432682275772 1.57700097560883
v -1.43136096000671 1.89420413970947 1.06512522697449
v -0.20840218663216 2.02842664718628 0.87608176469803
v -1.87975835800171 1.70581078529358 -0.09080337733030
v -0.65679949522018 1.84003281593323 -0.27984687685966
v -1.74126923084259 1.32964861392975 -0.37634295225143
v -0.76540303230286 1.46232545375824 -0.70680910348892
v -2.78137588500977 -0.26511690020561 -1.23718357086182
v -3.29244089126587 -0.46384775638580 0.10672737658024
v -4.40889596939087 -0.96585595607758 -0.69270765781403
v -5.06038188934326 -1.21394801139832 -0.11986532807350
v -3.80074906349182 -1.20829439163208 -0.91405493021011
v -4.15599775314331 -1.35766410827637 1.24321413040161
v -3.79439854621887 -1.76989793777466 -0.91636633872986
v -4.02582740783691 -1.96862912178040 1.19583606719971
v -4.30655050277710 -2.80781102180481 -0.72995829582214
v -4.53797912597656 -3.00654196739197 1.38224411010742
v -1.15102827548981 -2.97367453575134 2.57317280769348
v 1.60724723339081 -0.25775042176247 -0.01511467155069
v 1.94789600372314 -0.34642219543457 -0.01807893440127
v 1.24376082420349 -0.09018759429455 -1.40470302104950
v 1.21330451965332 -0.14285989105701 -1.38413214683533
v -2.57845830917358 0.17953343689442 -0.15314102172852
v 2.45839285850525 -2.54042649269104 1.21272504329681
v -4.29295969009399 -1.17215800285339 1.07381117343903
v 1.21300280094147 -1.62325930595398 0.42672392725945
v -2.81739139556885 -1.92848122119904 -1.46167850494385
v -4.28155994415283 -2.70896077156067 -2.03373527526855
v -2.87853360176086 -2.63381648063660 -1.63230943679810
v -3.87422657012939 -2.02174806594849 -1.36150562763214
v -4.85249853134155 -2.78635358810425 -1.13488662242889
v -3.11561369895935 -2.63348674774170 -2.05169296264648
v -3.26632523536682 -2.06312370300293 -1.74627530574799
v 1.10519707202911 -0.23484668135643 1.26197147369385
v 1.08077073097229 -0.18866015970707 1.29910957813263
v -1.60889470577240 -0.66878134012222 1.09905076026917
v 1.25364196300507 -1.08394777774811 0.64940851926804
v 2.05323553085327 -0.16907876729965 -0.08001106232405
v -2.06739330291748 0.37826445698738 -1.49705195426941
v 0.04365530610085 -2.64064216613770 1.19870316982269
v -0.79378688335419 -2.64064240455627 1.36397635936737
v -0.38393220305443 -2.82971930503845 2.50699806213379
v 2.02735733985901 -2.57213330268860 1.72282135486603
v 1.59093987941742 -2.39509010314941 -0.81433033943176
v 1.82126975059509 -2.42394781112671 -0.04701166972518
v 2.03617930412292 -2.75242924690247 -0.93272012472153
v 2.39809274673462 -2.67344141006470 0.00693770078942
v -0.80047494173050 -1.41567575931549 1.13524568080902
v -1.28990519046783 -0.33298671245575 -1.67022013664246
v -1.20178711414337 0.46420395374298 -2.04245328903198
v -1.68604111671448 -2.89667606353760 1.44094812870026
v -3.93245458602905 -1.31587421894073 0.94259780645370
v -2.18681907653809 -0.79868286848068 1.11782169342041
v -1.82631397247314 -0.94239920377731 0.98660850524902
v -0.42536452412605 -0.56461495161057 -1.44208836555481
v 1.55148220062256 -1.48486435413361 -1.09955620765686
v -2.60722017288208 -1.91771531105042 -1.88142609596252
v 1.80111122131348 -2.38432431221008 -1.23407793045044
v -2.00714039802551 -1.78930056095123 -3.13621330261230
v -2.06828260421753 -2.49463582038879 -3.30684423446655
v 2.40119099617004 -2.25590944290161 -2.48886513710022
v 2.84643030166626 -2.61324858665466 -2.60725474357605
# 93 vertices

vn -0.31736436486244 0.38947209715843 -0.86463367938995
vn 0.03758919984102 -0.93403458595276 -0.35519921779633
vn 0.71132946014404 0.59869563579559 -0.36820355057716
vn 0.02418685890734 0.97862768173218 -0.20421265065670
vn -1.00000000000000 0.00000000000000 0.00000000000000
vn -0.99910670518875 -0.04225861281157 0.00000000088221
vn 0.58404099941254 -0.53137958049774 -0.61362189054489
vn -0.09382152557373 -0.97213995456696 -0.21480558812618
vn 0.00000000000000 0.00000000000000 0.00000000000000
vn 0.00162575580180 -0.35052338242531 -0.93655258417130
vn 0.76844823360443 -0.57112491130829 -0.28862378001213
vn 0.75601720809937 -0.60055732727051 -0.26032441854477
vn -0.31310933828354 0.13579048216343 -0.93995928764343
vn -0.28708669543266 0.15614810585976 -0.94509208202362
vn -0.80454736948013 -0.56500077247620 -0.18296909332275
vn -0.11991541087627 0.86679702997208 -0.48402810096741
vn -0.09251207113266 0.85654819011688 -0.50770729780197
vn -0.23567266762257 0.96333527565002 -0.12823253870010
vn -0.26062396168709 0.95808398723602 0.11895449459553
vn -0.15497002005577 0.89662986993790 0.41477605700493
vn -0.10601004213095 0.78608781099319 0.60895633697510
vn 0.62828642129898 0.76127994060516 0.16034027934074
vn 0.60912263393402 0.77193343639374 0.18190217018127
vn 0.49831295013428 0.79768830537796 -0.33967268466949
vn 0.82113540172577 0.09555809944868 0.56267690658569
vn 0.67025107145309 0.22299654781818 -0.70783901214600
vn 0.91656458377838 -0.37686944007874 0.13371156156063
vn 0.98110073804855 0.18781098723412 0.04656637087464
vn 0.56775450706482 0.72546207904816 0.38904955983162
vn 0.16265423595905 0.59983265399933 -0.78341841697693
vn 0.84107071161270 0.06451211869717 -0.53706443309784
vn 0.58938288688660 0.78185689449310 0.20329204201698
vn -0.14814636111259 0.98575431108475 0.07963114976883
vn -0.77391129732132 0.63329327106476 -0.00093539623776
vn -0.14714887738228 0.87581783533096 -0.45966324210167
vn 0.73021149635315 0.29472419619560 -0.61638361215591
vn -0.57959353923798 0.71761852502823 -0.38612821698189
vn -0.65236026048660 -0.31799328327179 0.68797266483307
vn -0.16094391047955 0.91908025741577 0.35970619320869
vn -0.53136688470840 -0.83971536159515 0.11192560940981
vn -0.47260248661041 -0.10444751381874 0.87506437301636
vn -0.36187291145325 0.43340331315994 0.82535421848297
vn -0.97964572906494 -0.06214672327042 0.19087189435959
vn -0.98764717578888 -0.06194200739264 0.14393123984337
vn -0.28484559059143 -0.61069965362549 -0.73885649442673
vn 0.74665880203247 0.62286323308945 0.23354242742062
vn 0.91924166679382 0.18323798477650 0.34845179319382
vn 0.11229179799557 0.95800399780273 0.26385399699211
vn -0.54169845581055 -0.83073180913925 -0.12824784219265
vn -0.83771771192551 0.14439642429352 -0.52666753530502
vn -0.91811567544937 0.36489915847778 -0.15463589131832
vn -0.89068895578384 0.42269608378410 -0.16733564436436
vn -0.85947328805923 0.47869485616684 -0.17932358384132
vn -0.84434384107590 0.53580111265182 0.00080769765191
vn 0.16283890604973 0.96434509754181 -0.20861922204494
vn -0.53183895349503 0.70202803611755 0.47360733151436
vn -0.81963938474655 0.34214019775391 -0.45949038863182
vn 0.09675987809896 -0.98114293813705 0.16732011735439
vn 0.01595625095069 0.62614041566849 0.77954703569412
vn 0.97002762556076 0.23351654410362 0.06720460206270
vn 0.02504116855562 0.99854654073715 0.04772594571114
vn 0.03900767117739 0.99812656641006 0.04713597521186
vn 0.02329851128161 0.26278984546661 -0.96457177400589
vn -0.00839170906693 0.85581880807877 -0.51720768213272
vn -0.64525294303894 -0.08102344721556 0.75966030359268
vn -0.99340921640396 -0.06159683316946 0.09666417539120
vn 0.86781769990921 0.09861412644386 -0.48699861764908
vn -0.26074311137199 0.17633113265038 -0.94916826486588
vn 0.09299746155739 0.35726869106293 -0.92936027050018
vn -0.25318178534508 -0.45226904749870 -0.85519105195999
vn 0.58925765752792 -0.76949775218964 0.24626943469048
vn 0.85106456279755 0.39488044381142 0.34606149792671
vn -0.42493060231209 0.30065259337425 -0.85383957624435
vn -0.42997714877129 0.90279442071915 -0.00905005726963
vn 0.71520304679871 0.46240791678429 -0.52408355474472
vn 0.45331111550331 0.13126038014889 0.88163471221924
vn 0.80642235279083 -0.55375975370407 0.20744422078133
vn 0.64794141054153 -0.76100188493729 0.03237345814705
vn 0.23325213789940 0.88991338014603 0.39197903871536
vn -0.38631075620651 0.70390880107880 0.59605062007904
vn 0.21684356033802 -0.50324118137360 0.83649700880051
vn 0.27209985256195 0.24617278575897 0.93024760484695
vn 0.46801513433456 0.67441427707672 0.57107549905777
vn 0.99376988410950 0.01284876931459 0.11070837825537
vn 0.87919366359711 -0.00791422743350 0.47639885544777
vn 0.88954067230225 0.31116604804993 -0.33450424671173
vn 0.76975131034851 0.55135250091553 0.32170388102531
vn 0.77947938442230 -0.54065197706223 -0.31639736890793
vn 0.94288891553879 0.02509471960366 -0.33216071128845
vn 0.26970496773720 0.96191751956940 -0.04442889988422
vn 0.05752668902278 -0.62448638677597 0.77891427278519
vn -0.99642843008041 -0.08444172888994 0.00000000176284
vn -0.96978080272675 0.22809949517250 -0.08657826483250
vn 0.01106976252049 0.99877119064331 0.04830657690763
vn -0.39217531681061 -0.28027978539467 -0.87615168094635
vn -0.08042261004448 0.52703523635864 0.84602957963943
vn -0.07963480055332 -0.97442758083344 -0.21011710166931
vn 0.07185216993093 -0.99468457698822 -0.07375552505255
vn 0.00612074788660 -0.99818986654282 -0.05982894450426
vn 0.08198288083076 -0.99300616979599 -0.08495605736971
vn 0.11452782899141 -0.98745560646057 -0.10869604349136
vn -0.07011143118143 -0.99520015716553 -0.06827209144831
vn -0.05692720785737 -0.99675279855728 -0.05694881081581
vn -0.05984529107809 -0.99715405702591 -0.04585056379437
vn -0.06504144519567 -0.99702399969101 -0.04138606414199
vn -0.06230780482292 -0.99593675136566 -0.06502134352922
vn -0.06963051855564 -0.99590182304382 -0.05771610513330
vn -0.01284295786172 -0.99726629257202 -0.07276695966721
vn 0.15684908628464 -0.97717112302780 -0.14330020546913
vn 0.71782433986664 0.17728105187416 -0.67327535152435
vn 0.33166140317917 0.89923131465912 -0.28527832031250
vn -0.37109464406967 0.84829545021057 0.37773483991623
vn -0.10064215958118 -0.99287241697311 0.06383945792913
vn 0.14606197178364 0.98851388692856 -0.03880951926112
vn -0.69635516405106 0.17805315554142 0.69526004791260
vn -0.08692685514688 -0.99602502584457 -0.01943869888783
vn 0.56250107288361 0.67596536874771 -0.47609174251556
# 117 normals

o Column01
usemtl YellowDark
f 7//1 8//1 6//1 5//1
f 16//2 15//2 14//2 13//2
f 6//3 8//3 4//3 2//3
f 8//4 7//4 3//4 4//4
f 7//5 5//6 1//6 3//5
f 66//7 65//7 50//7 69//7
f 69//8 50//8 52//8
f 52//10 53//10 12//10 9//10
f 14//11 15//12 11//12 10//11
f 15//13 16//13 12//14 11//14
f 16//15 13//15 9//15 12//15
f 17//16 18//16 4//17 3//17
f 19//18 38//18 17//18 3//18
f 20//19 37//19 38//19 19//19
f 21//20 22//20 37//20 20//20
f 23//21 24//21 22//21 21//21
f 26//22 25//23 24//23 23//22
f 26//24 4//24 18//24 25//24
f 27//25 66//25 2//25
f 29//26 30//26 28//26 27//26
f 31//27 32//27 30//27 29//27
f 26//28 23//28 31//28 29//28
f 4//29 27//29 2//29
f 27//30 26//30 29//30
f 4//31 26//31 27//31
f 34//32 33//32 24//23 25//23
f 36//33 35//33 33//33 34//33
f 38//34 37//34 35//34 36//34
f 18//16 17//16 36//35 34//35
f 18//36 34//36 25//36
f 38//37 36//37 17//37
f 70//38 54//38 21//38 20//38
f 41//39 42//39 40//39 39//39
f 43//40 44//40 42//40 41//40
f 45//41 46//41 44//41 43//41
f 47//42 48//42 46//42 45//42
f 20//43 19//43 81//44 70//44
f 1//45 81//45 19//45 3//45
f 44//46 46//46 79//46 83//46
f 46//47 48//47 72//47 79//47
f 82//48 49//48 73//48 72//48
f 39//49 80//49 9//49 41//49
f 89//50 88//50 86//50 87//50
f 45//51 43//52 9//52 58//51
f 41//53 9//52 43//52
f 63//54 59//54 61//54 64//54
f 65//55 51//55 50//55
f 61//56 59//56 62//56
f 92//57 93//57 91//57 90//57
f 68//58 30//58 32//58 67//58
f 61//59 62//59 47//59 45//59
f 71//60 57//60 79//60 72//60
f 74//61 71//61 72//62 73//62
f 76//63 75//63 13//63 14//63
f 78//64 77//64 75//64 76//64
f 22//65 35//65 37//65
f 81//44 80//66 39//66 70//44
f 69//67 6//67 2//67 66//67
f 51//68 11//14 12//14 53//68
f 50//69 51//69 53//69 52//69
f 52//70 5//70 6//70 69//70
f 28//71 10//71 65//71
f 48//72 82//72 72//72
f 63//73 64//73 58//73 60//73
f 64//74 61//74 45//74 58//74
f 65//75 10//75 11//75 51//75
f 83//76 56//76 42//76 44//76
f 85//77 84//77 56//77 83//77
f 67//78 32//78 84//78 85//78
f 40//79 42//79 56//79 84//79
f 70//80 39//80 40//80 54//80
f 31//81 23//81 21//81 54//81
f 84//82 32//82 31//82 54//82
f 84//83 54//83 40//83
f 57//84 68//84 67//84 79//84
f 85//85 83//85 79//85 67//85
f 28//86 30//86 68//86
f 68//87 10//87 28//87
f 14//11 10//11 68//88 57//88
f 76//89 14//89 57//89 71//89
f 71//90 55//90 78//90 76//90
f 27//91 28//91 65//91 66//91
f 1//6 5//6 52//92
f 9//93 1//93 52//93
f 55//94 71//61 74//61
f 81//95 1//95 9//95 80//95
f 22//96 24//96 33//96 35//96
f 73//97 49//97 82//99 48//102 47//103 62//105 59//106 63//108 60//107 77//104 78//100 55//109 74//101
f 75//110 89//110 87//110 13//110
f 13//111 87//111 86//111 9//111
f 9//112 86//112 88//112 58//112
f 58//113 88//113 89//113 75//113
f 75//114 92//114 90//114 58//114
f 58//115 90//115 91//115 60//115
f 60//107 91//116 93//116 77//104
f 77//117 93//117 92//117 75//117

