# WaveFront *.obj file (generated by CINEMA 4D)

mtllib ./Building1.mtl

v -3.37177467346191 -3.84198188781738 -9.60327148437500
v -3.37177467346191 -1.28066062927246 -9.60327148437500
v -3.37177467346191 1.28066062927246 -9.60327148437500
v -3.37177467346191 3.84198188781738 -9.60327148437500
v -2.83675575256348 -3.84198188781738 -9.60327148437500
v -2.83675575256348 -1.28066062927246 -9.60327148437500
v -2.83675575256348 1.28066062927246 -9.60327148437500
v -2.83675575256348 3.84198188781738 -9.60327148437500
v 2.88167119026184 -3.84198188781738 -9.60327148437500
v 2.88167119026184 -1.28066062927246 -9.60327148437500
v 2.88167119026184 1.28066062927246 -9.60327148437500
v 2.88167119026184 3.84198188781738 -9.60327148437500
v 3.37177467346191 -3.84198188781738 -9.60327148437500
v 3.37177467346191 -1.28066062927246 -9.60327148437500
v 3.37177467346191 1.28066062927246 -9.60327148437500
v 3.37177467346191 3.84198188781738 -9.60327148437500
v 3.37177467346191 -3.84198188781738 -9.07196331024170
v 3.37177467346191 -1.28066062927246 -9.07196331024170
v 3.37177467346191 1.28066062927246 -9.07196331024170
v 3.37177467346191 3.84198188781738 -9.07196331024170
v 3.37177467346191 -3.84198188781738 9.10711860656738
v 3.37177467346191 -1.28066062927246 9.10711860656738
v 3.37177467346191 1.28066062927246 9.10711860656738
v 3.37177467346191 3.84198188781738 9.10711860656738
v 3.37177467346191 -3.84198188781738 9.60327148437500
v 3.37177467346191 -1.28066062927246 9.60327148437500
v 3.37177467346191 1.28066062927246 9.60327148437500
v 3.37177467346191 3.84198188781738 9.60327148437500
v 2.88167119026184 -3.84198188781738 9.60327148437500
v 2.88167119026184 -1.28066062927246 9.60327148437500
v 2.88167119026184 1.28066062927246 9.60327148437500
v 2.88167119026184 3.84198188781738 9.60327148437500
v -2.83675575256348 -3.84198188781738 9.60327148437500
v -2.83675575256348 -1.28066062927246 9.60327148437500
v -2.83675575256348 1.28066062927246 9.60327148437500
v -2.83675575256348 3.84198188781738 9.60327148437500
v -3.37177467346191 -3.84198188781738 9.60327148437500
v -3.37177467346191 -1.28066062927246 9.60327148437500
v -3.37177467346191 1.28066062927246 9.60327148437500
v -3.37177467346191 3.84198188781738 9.60327148437500
v -3.37177467346191 -3.84198188781738 9.10711860656738
v -3.37177467346191 -1.28066062927246 9.10711860656738
v -3.37177467346191 1.28066062927246 9.10711860656738
v -3.37177467346191 3.84198188781738 9.10711860656738
v -3.37177467346191 -3.84198188781738 -9.07196331024170
v -3.37177467346191 -1.28066062927246 -9.07196331024170
v -3.37177467346191 1.28066062927246 -9.07196331024170
v -3.37177467346191 3.84198188781738 -9.07196331024170
v -2.83675575256348 3.84198188781738 -9.07196331024170
v -2.83675575256348 3.84198188781738 9.10711860656738
v 2.88167119026184 3.84198188781738 -9.07196331024170
v 2.88167119026184 3.84198188781738 9.10711860656738
v -2.83675575256348 -3.84198188781738 9.10711860656738
v -2.83675575256348 -3.84198188781738 -9.07196331024170
v 2.88167119026184 -3.84198188781738 9.10711860656738
v 2.88167119026184 -3.84198188781738 -9.07196331024170
v -2.83675575256348 3.11198186874390 -9.07196331024170
v -2.83675575256348 3.11198186874390 9.10711860656738
v 2.88167119026184 3.11198186874390 -9.07196331024170
v 2.88167119026184 3.11198186874390 9.10711860656738
# 60 vertices

vn 0.00000000000000 0.00000000000000 -1.00000000000000
vn 1.00000000000000 0.00000000000000 0.00000000000000
vn 0.00000000000000 0.00000000000000 1.00000000000000
vn -1.00000000000000 0.00000000000000 0.00000000000000
vn 0.00000000000000 1.00000000000000 0.00000000000000
vn 0.00000000000000 -1.00000000000000 0.00000000000000
# 6 normals

o Building3
usemtl RoadBorders
f 1//1 2//1 6//1 5//1
f 5//1 6//1 10//1 9//1
f 9//1 10//1 14//1 13//1
f 2//1 3//1 7//1 6//1
f 6//1 7//1 11//1 10//1
f 10//1 11//1 15//1 14//1
f 3//1 4//1 8//1 7//1
f 7//1 8//1 12//1 11//1
f 11//1 12//1 16//1 15//1
f 13//2 14//2 18//2 17//2
f 17//2 18//2 22//2 21//2
f 21//2 22//2 26//2 25//2
f 14//2 15//2 19//2 18//2
f 18//2 19//2 23//2 22//2
f 22//2 23//2 27//2 26//2
f 15//2 16//2 20//2 19//2
f 19//2 20//2 24//2 23//2
f 23//2 24//2 28//2 27//2
f 25//3 26//3 30//3 29//3
f 29//3 30//3 34//3 33//3
f 33//3 34//3 38//3 37//3
f 26//3 27//3 31//3 30//3
f 30//3 31//3 35//3 34//3
f 34//3 35//3 39//3 38//3
f 27//3 28//3 32//3 31//3
f 31//3 32//3 36//3 35//3
f 35//3 36//3 40//3 39//3
f 37//4 38//4 42//4 41//4
f 41//4 42//4 46//4 45//4
f 45//4 46//4 2//4 1//4
f 38//4 39//4 43//4 42//4
f 42//4 43//4 47//4 46//4
f 46//4 47//4 3//4 2//4
f 39//4 40//4 44//4 43//4
f 43//4 44//4 48//4 47//4
f 47//4 48//4 4//4 3//4
f 4//5 48//5 49//5 8//5
f 8//5 49//5 51//5 12//5
f 12//5 51//5 20//5 16//5
f 48//5 44//5 50//5 49//5
f 57//5 58//5 60//5 59//5
f 51//5 52//5 24//5 20//5
f 44//5 40//5 36//5 50//5
f 50//5 36//5 32//5 52//5
f 52//5 32//5 28//5 24//5
f 37//6 41//6 53//6 33//6
f 33//6 53//6 55//6 29//6
f 29//6 55//6 21//6 25//6
f 41//6 45//6 54//6 53//6
f 53//6 54//6 56//6 55//6
f 55//6 56//6 17//6 21//6
f 45//6 1//6 5//6 54//6
f 54//6 5//6 9//6 56//6
f 56//6 9//6 13//6 17//6
f 49//3 57//3 59//3 51//3
f 51//4 59//4 60//4 52//4
f 52//1 60//1 58//1 50//1
f 50//2 58//2 57//2 49//2

