# WaveFront *.obj file (generated by CINEMA 4D)

mtllib ./Building4.mtl

v -3.48843932151794 7.34254360198975 -4.63503885269165
v -3.48843932151794 9.38242435455322 -4.63503885269165
v 3.25511002540588 7.34254360198975 -4.63503885269165
v 3.25511002540588 9.38242435455322 -4.63503885269165
v 3.25511002540588 7.34254360198975 4.63503885269165
v 3.25511002540588 9.38242435455322 4.63503885269165
v -3.48843932151794 7.34254360198975 4.63503885269165
v -3.48843932151794 9.38242435455322 4.63503885269165
# 8 vertices

vn 0.00000000000000 0.00000000000000 -1.00000000000000
vn 1.00000000000000 0.00000000000000 0.00000000000000
vn 0.00000000000000 0.00000000000000 1.00000000000000
vn -1.00000000000000 0.00000000000000 0.00000000000000
vn 0.00000000000000 1.00000000000000 0.00000000000000
vn 0.00000000000000 -1.00000000000000 0.00000000000000
# 6 normals

vt 0.00000000000000 0.00000000000000 0.00000000000000
vt 0.00000000000000 1.00000000000000 0.00000000000000
vt 1.00000000000000 1.00000000000000 0.00000000000000
vt 1.00000000000000 0.00000000000000 0.00000000000000
# 4 texture coordinates

o Cube.11
usemtl RoadBorders
f 1/1/1 2/2/1 4/3/1 3/4/1
f 3/1/2 4/2/2 6/3/2 5/4/2
f 5/1/3 6/2/3 8/3/3 7/4/3
f 7/1/4 8/2/4 2/3/4 1/4/4
f 2/1/5 8/2/5 6/3/5 4/4/5
f 7/1/6 1/2/6 3/3/6 5/4/6

v -3.48843932151794 3.85138940811157 -4.63503885269165
v -3.48843932151794 5.89126968383789 -4.63503885269165
v 3.25511002540588 3.85138940811157 -4.63503885269165
v 3.25511002540588 5.89126968383789 -4.63503885269165
v 3.25511002540588 3.85138940811157 4.63503885269165
v 3.25511002540588 5.89126968383789 4.63503885269165
v -3.48843932151794 3.85138940811157 4.63503885269165
v -3.48843932151794 5.89126968383789 4.63503885269165
# 8 vertices

# 0 normal

# 0 texture coordinate

o Cube.10
usemtl RoadBorders
f 9/1/1 10/2/1 12/3/1 11/4/1
f 11/1/2 12/2/2 14/3/2 13/4/2
f 13/1/3 14/2/3 16/3/3 15/4/3
f 15/1/4 16/2/4 10/3/4 9/4/4
f 10/1/5 16/2/5 14/3/5 12/4/5
f 15/1/6 9/2/6 11/3/6 13/4/6

v -3.48843932151794 0.50052601099014 -4.63503885269165
v -3.48843932151794 2.54040646553040 -4.63503885269165
v 3.25511002540588 0.50052601099014 -4.63503885269165
v 3.25511002540588 2.54040646553040 -4.63503885269165
v 3.25511002540588 0.50052601099014 4.63503885269165
v 3.25511002540588 2.54040646553040 4.63503885269165
v -3.48843932151794 0.50052601099014 4.63503885269165
v -3.48843932151794 2.54040646553040 4.63503885269165
# 8 vertices

# 0 normal

# 0 texture coordinate

o Cube.9
usemtl RoadBorders
f 17/1/1 18/2/1 20/3/1 19/4/1
f 19/1/2 20/2/2 22/3/2 21/4/2
f 21/1/3 22/2/3 24/3/3 23/4/3
f 23/1/4 24/2/4 18/3/4 17/4/4
f 18/1/5 24/2/5 22/3/5 20/4/5
f 23/1/6 17/2/6 19/3/6 21/4/6

v -3.48843932151794 -2.73323369026184 -4.63503885269165
v -3.48843932151794 -0.69335341453552 -4.63503885269165
v 3.25511002540588 -2.73323369026184 -4.63503885269165
v 3.25511002540588 -0.69335341453552 -4.63503885269165
v 3.25511002540588 -2.73323369026184 4.63503885269165
v 3.25511002540588 -0.69335341453552 4.63503885269165
v -3.48843932151794 -2.73323369026184 4.63503885269165
v -3.48843932151794 -0.69335341453552 4.63503885269165
# 8 vertices

# 0 normal

# 0 texture coordinate

o Cube.8
usemtl RoadBorders
f 25/1/1 26/2/1 28/3/1 27/4/1
f 27/1/2 28/2/2 30/3/2 29/4/2
f 29/1/3 30/2/3 32/3/3 31/4/3
f 31/1/4 32/2/4 26/3/4 25/4/4
f 26/1/5 32/2/5 30/3/5 28/4/5
f 31/1/6 25/2/6 27/3/6 29/4/6

v -3.48843932151794 -5.80425834655762 -4.63503885269165
v -3.48843932151794 -3.76437807083130 -4.63503885269165
v 3.25511002540588 -5.80425834655762 -4.63503885269165
v 3.25511002540588 -3.76437807083130 -4.63503885269165
v 3.25511002540588 -5.80425834655762 4.63503885269165
v 3.25511002540588 -3.76437807083130 4.63503885269165
v -3.48843932151794 -5.80425834655762 4.63503885269165
v -3.48843932151794 -3.76437807083130 4.63503885269165
# 8 vertices

# 0 normal

# 0 texture coordinate

o Cube.7
usemtl RoadBorders
f 33/1/1 34/2/1 36/3/1 35/4/1
f 35/1/2 36/2/2 38/3/2 37/4/2
f 37/1/3 38/2/3 40/3/3 39/4/3
f 39/1/4 40/2/4 34/3/4 33/4/4
f 34/1/5 40/2/5 38/3/5 36/4/5
f 39/1/6 33/2/6 35/3/6 37/4/6

v -3.48843932151794 -8.71880722045898 -4.63503885269165
v -3.48843932151794 -6.67892694473267 -4.63503885269165
v 3.25511002540588 -8.71880722045898 -4.63503885269165
v 3.25511002540588 -6.67892694473267 -4.63503885269165
v 3.25511002540588 -8.71880722045898 4.63503885269165
v 3.25511002540588 -6.67892694473267 4.63503885269165
v -3.48843932151794 -8.71880722045898 4.63503885269165
v -3.48843932151794 -6.67892694473267 4.63503885269165
# 8 vertices

# 0 normal

# 0 texture coordinate

o Cube.6
usemtl RoadBorders
f 41/1/1 42/2/1 44/3/1 43/4/1
f 43/1/2 44/2/2 46/3/2 45/4/2
f 45/1/3 46/2/3 48/3/3 47/4/3
f 47/1/4 48/2/4 42/3/4 41/4/4
f 42/1/5 48/2/5 46/3/5 44/4/5
f 47/1/6 41/2/6 43/3/6 45/4/6

v -2.67178630828857 -11.83998012542725 -3.81423664093018
v -2.67178630828857 10.72437763214111 -3.81423664093018
v 4.07176303863525 -11.83998012542725 -3.81423664093018
v 4.07176303863525 10.72437763214111 -3.81423664093018
v 4.07176303863525 -11.83998012542725 3.81423664093018
v 4.07176303863525 10.72437763214111 3.81423664093018
v -2.67178630828857 -11.83998012542725 3.81423664093018
v -2.67178630828857 10.72437763214111 3.81423664093018
# 8 vertices

# 0 normal

# 0 texture coordinate

o Cube.2
usemtl RoadBorders
f 49/1/1 50/2/1 52/3/1 51/4/1
f 51/1/2 52/2/2 54/3/2 53/4/2
f 53/1/3 54/2/3 56/3/3 55/4/3
f 55/1/4 56/2/4 50/3/4 49/4/4
f 50/1/5 56/2/5 54/3/5 52/4/5
f 55/1/6 49/2/6 51/3/6 53/4/6

